<?xml version="1.0" encoding="UTF-8" standalone="no"?>
<!DOCTYPE svg PUBLIC "-//W3C//DTD SVG 1.1//EN"
 "http://www.w3.org/Graphics/SVG/1.1/DTD/svg11.dtd">
<!-- Generated by graphviz version 10.0.1 (0)
 -->
<!-- Title: include/israelid.h Pages: 1 -->
<svg width="140pt" height="86pt"
 viewBox="0.00 0.00 139.88 85.50" xmlns="http://www.w3.org/2000/svg" xmlns:xlink="http://www.w3.org/1999/xlink">
<g id="graph0" class="graph" transform="scale(1 1) rotate(0) translate(4 81.5)">
<title>include/israelid.h</title>
<!-- Node1 -->
<g id="Node000001" class="node">
<title>Node1</title>
<g id="a_Node000001"><a xlink:title=" ">
<polygon fill="#999999" stroke="#666666" points="117.12,-77.5 17.88,-77.5 17.88,-56.75 117.12,-56.75 117.12,-77.5"/>
<text text-anchor="middle" x="67.5" y="-64" font-family="Helvetica,sans-Serif" font-size="10.00">include/israelid.h</text>
</a>
</g>
</g>
<!-- Node2 -->
<g id="Node000002" class="node">
<title>Node2</title>
<g id="a_Node000002"><a xlink:title=" ">
<polygon fill="#e0e0e0" stroke="#999999" points="61,-20.75 0,-20.75 0,0 61,0 61,-20.75"/>
<text text-anchor="middle" x="30.5" y="-7.25" font-family="Helvetica,sans-Serif" font-size="10.00">stdbool.h</text>
</a>
</g>
</g>
<!-- Node1&#45;&gt;Node2 -->
<g id="edge1_Node000001_Node000002" class="edge">
<title>Node1&#45;&gt;Node2</title>
<g id="a_edge1_Node000001_Node000002"><a xlink:title=" ">
<path fill="none" stroke="#63b8ff" d="M60.89,-56.34C56.04,-49.17 49.32,-39.23 43.43,-30.51"/>
<polygon fill="#63b8ff" stroke="#63b8ff" points="46.4,-28.66 37.91,-22.33 40.6,-32.58 46.4,-28.66"/>
</a>
</g>
</g>
<!-- Node3 -->
<g id="Node000003" class="node">
<title>Node3</title>
<g id="a_Node000003"><a xlink:title=" ">
<polygon fill="#e0e0e0" stroke="#999999" points="131.88,-20.75 79.12,-20.75 79.12,0 131.88,0 131.88,-20.75"/>
<text text-anchor="middle" x="105.5" y="-7.25" font-family="Helvetica,sans-Serif" font-size="10.00">stdint.h</text>
</a>
</g>
</g>
<!-- Node1&#45;&gt;Node3 -->
<g id="edge2_Node000001_Node000003" class="edge">
<title>Node1&#45;&gt;Node3</title>
<g id="a_edge2_Node000001_Node000003"><a xlink:title=" ">
<path fill="none" stroke="#63b8ff" d="M74.29,-56.34C79.27,-49.17 86.17,-39.23 92.22,-30.51"/>
<polygon fill="#63b8ff" stroke="#63b8ff" points="95.08,-32.53 97.9,-22.32 89.32,-28.54 95.08,-32.53"/>
</a>
</g>
</g>
</g>
</svg>
